HIERARCHY
ROOT Hips
{
	OFFSET 0.000000 97.167313 0.000000
	CHANNELS 6 Xposition Yposition Zposition Xrotation Yrotation Zrotation
	JOINT Spine
	{
		OFFSET 0.000000 13.784798 0.064400
		CHANNELS 3 Xrotation Yrotation Zrotation
		JOINT Spine1
		{
			OFFSET 0.000000 12.037903 0.404700
			CHANNELS 3 Xrotation Yrotation Zrotation
			JOINT Spine2
			{
				OFFSET 0.000000 17.795601 0.420200
				CHANNELS 3 Xrotation Yrotation Zrotation
				JOINT Neck
				{
					OFFSET 0.000000 39.131302 11.954600
					CHANNELS 3 Xrotation Yrotation Zrotation
					JOINT Head
					{
						OFFSET 0.000000 14.456192 15.627699
						CHANNELS 3 Xrotation Yrotation Zrotation
						JOINT HeadTop_End
						{
							OFFSET 0.000000 15.703506 7.603401
							CHANNELS 3 Xrotation Yrotation Zrotation
							End Site
							{
								OFFSET 0.000000 17.447403 0.000000
							}
						}
					}
				}
				JOINT LeftShoulder
				{
					OFFSET 17.399500 24.608795 1.168800
					CHANNELS 3 Xrotation Yrotation Zrotation
					JOINT LeftArm
					{
						OFFSET 18.980635 5.765305 1.818600
						CHANNELS 3 Xrotation Yrotation Zrotation
						JOINT LeftForeArm
						{
							OFFSET 49.290169 0.000000 0.000000
							CHANNELS 3 Xrotation Yrotation Zrotation
							JOINT LeftHand
							{
								OFFSET 31.562012 0.000000 0.000000
								CHANNELS 3 Xrotation Yrotation Zrotation
								JOINT LeftHandThumb1
								{
									OFFSET 6.133995 -4.388519 7.076070
									CHANNELS 3 Xrotation Yrotation Zrotation
									JOINT LeftHandThumb2
									{
										OFFSET 6.037666 -3.485840 3.485847
										CHANNELS 3 Xrotation Yrotation Zrotation
										JOINT LeftHandThumb3
										{
											OFFSET 6.496506 -3.750763 3.750761
											CHANNELS 3 Xrotation Yrotation Zrotation
											JOINT LeftHandThumb4
											{
												OFFSET 5.616882 -3.242905 3.242910
												CHANNELS 3 Xrotation Yrotation Zrotation
												End Site
												{
													OFFSET -1.254608 7.132141 0.375429
												}
											}
										}
									}
								}
								JOINT LeftHandPinky1
								{
									OFFSET 18.920792 -0.453171 -11.426712
									CHANNELS 3 Xrotation Yrotation Zrotation
									JOINT LeftHandPinky2
									{
										OFFSET 4.919586 0.000000 0.000000
										CHANNELS 3 Xrotation Yrotation Zrotation
										JOINT LeftHandPinky3
										{
											OFFSET 5.233047 0.000000 0.000000
											CHANNELS 3 Xrotation Yrotation Zrotation
											JOINT LeftHandPinky4
											{
												OFFSET 5.571716 0.000000 0.000000
												CHANNELS 3 Xrotation Yrotation Zrotation
												End Site
												{
													OFFSET -3.459808 4.342407 -0.466164
												}
											}
										}
									}
								}
								JOINT LeftHandRing1
								{
									OFFSET 22.726120 -0.094986 -6.500475
									CHANNELS 3 Xrotation Yrotation Zrotation
									JOINT LeftHandRing2
									{
										OFFSET 6.408615 0.000000 0.000000
										CHANNELS 3 Xrotation Yrotation Zrotation
										JOINT LeftHandRing3
										{
											OFFSET 6.150223 0.000000 0.000000
											CHANNELS 3 Xrotation Yrotation Zrotation
											JOINT LeftHandRing4
											{
												OFFSET 6.145386 0.000000 0.000000
												CHANNELS 3 Xrotation Yrotation Zrotation
												End Site
												{
													OFFSET -3.671402 4.923981 -0.202372
												}
											}
										}
									}
								}
								JOINT LeftHandMiddle1
								{
									OFFSET 23.373947 0.000000 0.000001
									CHANNELS 3 Xrotation Yrotation Zrotation
									JOINT LeftHandMiddle2
									{
										OFFSET 6.996567 0.000000 0.000000
										CHANNELS 3 Xrotation Yrotation Zrotation
										JOINT LeftHandMiddle3
										{
											OFFSET 7.015945 0.000000 0.000000
											CHANNELS 3 Xrotation Yrotation Zrotation
											JOINT LeftHandMiddle4
											{
												OFFSET 7.721573 0.000000 0.000000
												CHANNELS 3 Xrotation Yrotation Zrotation
												End Site
												{
													OFFSET -4.651108 6.158463 0.251582
												}
											}
										}
									}
								}
								JOINT LeftHandIndex1
								{
									OFFSET 21.310577 -0.490082 6.209344
									CHANNELS 3 Xrotation Yrotation Zrotation
									JOINT LeftHandIndex2
									{
										OFFSET 7.536453 0.000000 0.000000
										CHANNELS 3 Xrotation Yrotation Zrotation
										JOINT LeftHandIndex3
										{
											OFFSET 7.512344 0.000000 0.000000
											CHANNELS 3 Xrotation Yrotation Zrotation
											JOINT LeftHandIndex4
											{
												OFFSET 10.212402 0.000000 0.000001
												CHANNELS 3 Xrotation Yrotation Zrotation
												End Site
												{
													OFFSET -5.180801 8.690506 1.388433
												}
											}
										}
									}
								}
							}
						}
					}
				}
				JOINT RightShoulder
				{
					OFFSET -17.399500 24.608795 1.168800
					CHANNELS 3 Xrotation Yrotation Zrotation
					JOINT RightArm
					{
						OFFSET -18.980635 5.765305 1.818600
						CHANNELS 3 Xrotation Yrotation Zrotation
						JOINT RightForeArm
						{
							OFFSET -49.290169 0.000000 0.000000
							CHANNELS 3 Xrotation Yrotation Zrotation
							JOINT RightHand
							{
								OFFSET -31.562012 0.000000 0.000000
								CHANNELS 3 Xrotation Yrotation Zrotation
								JOINT RightHandThumb1
								{
									OFFSET -6.133995 -4.388519 7.076070
									CHANNELS 3 Xrotation Yrotation Zrotation
									JOINT RightHandThumb2
									{
										OFFSET -6.037666 -3.485840 3.485847
										CHANNELS 3 Xrotation Yrotation Zrotation
										JOINT RightHandThumb3
										{
											OFFSET -6.496506 -3.750763 3.750761
											CHANNELS 3 Xrotation Yrotation Zrotation
											JOINT RightHandThumb4
											{
												OFFSET -5.616882 -3.242905 3.242910
												CHANNELS 3 Xrotation Yrotation Zrotation
												End Site
												{
													OFFSET 1.254608 7.132141 0.375429
												}
											}
										}
									}
								}
								JOINT RightHandIndex1
								{
									OFFSET -21.310577 -0.490082 6.209344
									CHANNELS 3 Xrotation Yrotation Zrotation
									JOINT RightHandIndex2
									{
										OFFSET -7.536453 0.000000 0.000000
										CHANNELS 3 Xrotation Yrotation Zrotation
										JOINT RightHandIndex3
										{
											OFFSET -7.512344 0.000000 0.000000
											CHANNELS 3 Xrotation Yrotation Zrotation
											JOINT RightHandIndex4
											{
												OFFSET -10.212402 0.000000 0.000001
												CHANNELS 3 Xrotation Yrotation Zrotation
												End Site
												{
													OFFSET 5.180801 8.690506 1.388433
												}
											}
										}
									}
								}
								JOINT RightHandMiddle1
								{
									OFFSET -23.373947 0.000000 0.000001
									CHANNELS 3 Xrotation Yrotation Zrotation
									JOINT RightHandMiddle2
									{
										OFFSET -6.996567 0.000000 0.000000
										CHANNELS 3 Xrotation Yrotation Zrotation
										JOINT RightHandMiddle3
										{
											OFFSET -7.015945 0.000000 0.000000
											CHANNELS 3 Xrotation Yrotation Zrotation
											JOINT RightHandMiddle4
											{
												OFFSET -7.721573 0.000000 0.000000
												CHANNELS 3 Xrotation Yrotation Zrotation
												End Site
												{
													OFFSET 4.651108 6.158463 0.251582
												}
											}
										}
									}
								}
								JOINT RightHandRing1
								{
									OFFSET -22.726120 -0.094986 -6.500475
									CHANNELS 3 Xrotation Yrotation Zrotation
									JOINT RightHandRing2
									{
										OFFSET -6.408615 0.000000 0.000000
										CHANNELS 3 Xrotation Yrotation Zrotation
										JOINT RightHandRing3
										{
											OFFSET -6.150223 0.000000 0.000000
											CHANNELS 3 Xrotation Yrotation Zrotation
											JOINT RightHandRing4
											{
												OFFSET -6.145386 0.000000 0.000000
												CHANNELS 3 Xrotation Yrotation Zrotation
												End Site
												{
													OFFSET 3.671402 4.923981 -0.202372
												}
											}
										}
									}
								}
								JOINT RightHandPinky1
								{
									OFFSET -18.920792 -0.453171 -11.426712
									CHANNELS 3 Xrotation Yrotation Zrotation
									JOINT RightHandPinky2
									{
										OFFSET -4.919586 0.000000 0.000000
										CHANNELS 3 Xrotation Yrotation Zrotation
										JOINT RightHandPinky3
										{
											OFFSET -5.233047 0.000000 0.000000
											CHANNELS 3 Xrotation Yrotation Zrotation
											JOINT RightHandPinky4
											{
												OFFSET -5.571716 0.000000 0.000000
												CHANNELS 3 Xrotation Yrotation Zrotation
												End Site
												{
													OFFSET 3.459808 4.342407 -0.466164
												}
											}
										}
									}
								}
							}
						}
					}
				}
			}
		}
	}
	JOINT LeftUpLeg
	{
		OFFSET 19.899099 -7.885101 -3.429500
		CHANNELS 3 Xrotation Yrotation Zrotation
		JOINT LeftLeg
		{
			OFFSET 1.745560 -36.997807 10.304700
			CHANNELS 3 Xrotation Yrotation Zrotation
			JOINT LeftFoot
			{
				OFFSET -1.745558 -29.803308 -13.615400
				CHANNELS 3 Xrotation Yrotation Zrotation
				JOINT LeftToeBase
				{
					OFFSET 1.181900 -18.539904 15.226099
					CHANNELS 3 Xrotation Yrotation Zrotation
					JOINT LeftToe_End
					{
						OFFSET -0.863701 1.402801 16.534700
						CHANNELS 3 Xrotation Yrotation Zrotation
						End Site
						{
							OFFSET 0.000000 16.616566 0.000000
						}
					}
				}
			}
		}
	}
	JOINT RightUpLeg
	{
		OFFSET -19.899099 -7.885101 -3.429500
		CHANNELS 3 Xrotation Yrotation Zrotation
		JOINT RightLeg
		{
			OFFSET -1.745560 -36.997807 10.304700
			CHANNELS 3 Xrotation Yrotation Zrotation
			JOINT RightFoot
			{
				OFFSET 1.745558 -29.803308 -13.615400
				CHANNELS 3 Xrotation Yrotation Zrotation
				JOINT RightToeBase
				{
					OFFSET -1.181900 -18.539904 15.226099
					CHANNELS 3 Xrotation Yrotation Zrotation
					JOINT RightToe_End
					{
						OFFSET 0.863701 1.402801 16.534700
						CHANNELS 3 Xrotation Yrotation Zrotation
						End Site
						{
							OFFSET 0.000000 16.616566 0.000000
						}
					}
				}
			}
		}
	}
}
MOTION
Frames: 4
Frame Time: 0.033333
1.193990 75.963257 5.116255 0.102297 2.068512 -0.034392 15.681612 2.377647 0.926748 2.587598 0.521689 0.458031 2.590845 0.496348 0.450428 0.862648 -0.755226 0.884768 -12.287013 -4.314991 -4.853313 0.000000 0.000000 0.000000 0.538673 -4.328699 -16.179987 29.263857 12.932586 -72.985714 0.000035 -55.431609 0.000011 4.979353 3.703996 -0.156560 -2.832635 -1.477331 13.645880 19.240318 19.690197 -6.942248 -18.674258 -19.016136 13.024328 -0.000000 0.000002 -0.000002 1.991619 7.120090 -36.160415 0.708872 2.795309 -28.454426 0.345395 1.983608 -19.753377 0.000000 0.000001 -0.000004 4.144535 9.374835 -39.505941 1.451751 3.861384 -41.196798 0.221126 1.595901 -15.775936 -0.000001 0.000001 -0.000000 1.505375 6.216136 -38.017810 0.846959 3.036001 -31.168684 0.373256 2.059496 -20.543225 0.000002 0.000000 0.000009 -0.860250 2.184274 -28.931575 0.745540 2.861861 -29.197518 0.245035 1.678196 -16.612938 -0.000000 0.000003 0.000002 0.411561 5.768847 18.389666 5.191513 -0.885454 54.986400 0.000014 40.557605 -0.000006 13.088413 6.113379 -4.658665 -8.879577 4.825544 -8.712534 17.703316 -27.978912 -1.443612 -5.739851 17.590309 -12.555323 0.000001 0.000002 -0.000002 -0.329057 -2.295700 22.502219 1.145051 -3.060405 41.019285 0.241773 -1.482492 18.523717 -0.000000 -0.000004 -0.000002 1.411808 -5.682544 35.397916 0.992224 -2.875549 38.068374 0.150525 -1.175668 14.591388 -0.000000 0.000001 -0.000008 3.805725 -8.246662 41.741482 0.788876 -2.595327 33.809208 0.206826 -1.373863 17.121858 -0.000003 -0.000000 -0.000005 1.189439 -5.348040 44.678801 1.008048 -2.895611 38.382709 0.474652 -2.050200 26.068168 0.000002 0.000003 0.000003 -43.924701 -5.678084 9.331971 79.203748 5.637198 0.558642 -0.379833 2.533085 -5.660825 -10.994342 3.430599 -12.693576 -0.000001 0.000001 -0.000000 -34.629858 -2.085162 -8.495133 64.266111 7.796962 -0.321861 -20.359471 -1.029405 1.670297 -11.598427 0.000002 0.000002 0.000000 -0.000000 -0.000000 
-0.521711 74.828598 -5.741043 -11.268536 0.969799 1.515458 15.027512 2.771666 0.820242 10.821963 0.802265 1.055863 10.951794 0.849564 0.751737 -0.498452 -0.885902 -0.202397 -13.897080 -4.828495 -5.254268 -0.000000 0.000000 0.000000 0.357392 -8.020392 -15.684042 13.719457 8.448599 -57.797129 0.000029 -59.484199 0.000013 5.398065 -4.211117 2.222518 -2.727622 -0.629173 13.919903 19.240322 19.690187 -6.942253 -17.542841 -11.667975 15.244164 0.000000 -0.000001 0.000003 3.220807 8.350114 -53.280687 1.502512 3.918483 -41.945011 0.440494 2.230574 -22.339278 -0.000000 -0.000002 -0.000004 5.851285 9.646971 -52.593546 2.481007 4.785803 -54.785063 0.298800 1.848785 -18.359832 -0.000002 -0.000002 0.000005 2.158987 6.851999 -46.994871 1.779881 4.205967 -45.858945 0.538632 2.455678 -24.739531 -0.000003 -0.000001 -0.000001 -0.324223 2.988351 -38.393682 1.598039 4.021987 -43.324713 0.379434 2.075890 -20.714389 0.000002 0.000003 0.000001 0.819900 9.087475 14.986977 -7.357068 3.985325 52.355183 -0.000007 49.203143 0.000034 13.996176 11.630329 -7.448693 -7.600633 4.795059 -8.007628 18.058812 -30.379886 -1.550099 -4.818169 12.094008 -14.061536 0.000000 -0.000001 0.000002 0.031946 -2.993296 32.170392 2.112953 -3.902063 56.857404 0.398216 -1.886025 23.842708 -0.000000 0.000000 0.000002 2.028944 -6.181988 45.175035 1.914262 -3.765170 53.886368 0.278886 -1.588968 19.908827 -0.000001 0.000002 -0.000006 4.700940 -8.220711 51.379268 1.643939 -3.552631 49.652173 0.353349 -1.781088 22.440392 -0.000000 -0.000004 -0.000000 1.753128 -5.891640 54.265429 1.934898 -3.780089 54.199744 0.682832 -2.429679 31.390679 0.000003 -0.000001 0.000000 -14.200653 -4.238279 7.625782 90.021716 4.728066 1.063507 -29.231468 9.635444 -6.833636 5.311060 0.000006 -0.000002 -0.000001 -0.000001 0.000002 -36.436392 -3.326541 -7.754826 65.802418 8.187790 -1.039089 -10.224458 0.348438 -1.891508 -9.939335 0.000002 0.000001 0.000000 -0.000000 0.000000 
-2.836867 74.144966 -17.362785 -22.381070 1.649576 3.833113 12.846131 1.806591 -1.143817 18.246908 0.891776 1.251704 18.834182 0.783853 0.335164 -1.438482 -1.202527 -0.337707 -14.225132 -5.363334 -4.831389 -0.000001 -0.000000 0.000000 0.025865 -12.492976 -13.217172 0.971017 -4.366720 -45.707011 0.000019 -57.639352 0.000032 8.278430 -10.997864 3.249339 -2.548178 0.904148 14.411028 19.240318 19.690189 -6.942262 -16.398625 -0.503561 18.271704 -0.000001 -0.000000 -0.000001 5.915617 9.443362 -82.077823 3.298842 5.266816 -64.099365 0.640192 2.664830 -27.012608 0.000003 -0.000001 0.000001 8.141882 9.074075 -73.919053 4.545762 5.704094 -77.087817 0.467733 2.295670 -23.028883 -0.000000 -0.000001 0.000001 3.390429 7.637026 -61.555857 3.702987 5.443769 -68.427390 0.783631 2.928904 -29.951643 -0.000000 -0.000000 0.000004 0.744638 4.028851 -53.041490 3.446445 5.335673 -65.696653 0.589102 2.562254 -25.892571 -0.000000 0.000003 0.000001 1.609740 9.508370 11.002339 -12.841942 3.674898 53.921215 0.000030 59.957723 -0.000013 16.573435 17.303823 -10.173113 -5.769608 4.739656 -6.185136 18.620931 -34.119810 -1.685886 -3.507224 1.761174 -16.600186 -0.000001 -0.000002 0.000001 0.969071 -4.069822 49.804425 4.374790 -4.648625 86.520076 0.763926 -2.557729 33.254227 -0.000000 0.000000 0.000001 3.273716 -6.771925 62.957856 4.132913 -4.627626 83.529498 0.597548 -2.284150 29.316914 -0.000002 0.000000 -0.000004 6.067852 -7.781475 68.999063 3.797110 -4.577213 79.346246 0.702481 -2.461562 31.850996 0.000003 -0.000004 -0.000004 3.010013 -6.620759 71.856527 4.158046 -4.630409 83.840709 1.133882 -3.047515 40.809557 -0.000001 0.000001 0.000004 19.424662 -4.017212 9.425582 93.392018 2.132054 0.952064 -47.700549 9.421000 -7.990811 -1.998574 -0.000006 0.000001 -0.000001 0.000000 0.000001 -36.728362 -4.258433 -8.590016 61.181119 7.500609 -1.377841 6.961399 2.126558 -1.912700 -11.148768 0.000002 0.000001 0.000000 0.000000 -0.000000 
-3.816455 83.314629 -27.556700 -25.989551 2.464377 5.410913 9.925716 -1.314961 -5.921670 22.116848 0.524940 0.655679 23.564940 -0.006657 -1.104993 -1.196748 -1.143617 0.060044 -12.322202 -3.778468 -4.061047 0.000000 -0.000000 -0.000000 0.288703 -16.497769 -7.860116 -6.317018 -21.182976 -35.496592 0.000033 -51.054978 0.000021 11.285938 -16.578440 2.733718 -2.449357 1.800910 14.695946 19.240325 19.690182 -6.942276 -16.429912 -0.913101 18.165320 0.000001 0.000002 -0.000002 6.893876 9.495985 -91.679601 3.832523 5.492978 -69.786590 0.773105 2.910570 -29.745088 0.000001 -0.000000 -0.000000 8.285537 8.761829 -79.083168 5.121225 5.805501 -82.822102 0.583085 2.549844 -25.757371 -0.000000 0.000001 0.000005 3.670206 7.760318 -64.687096 3.733731 5.455766 -68.751359 0.570231 2.523085 -25.467064 -0.000000 -0.000001 0.000004 0.821789 4.041466 -53.741199 3.712597 5.447535 -68.528709 0.420750 2.181950 -21.826542 -0.000000 0.000002 -0.000001 2.181834 6.914103 7.581851 -8.872719 -1.807484 54.736306 0.000029 71.407251 -0.000035 22.551227 20.565163 -10.935741 -6.333984 4.454466 -3.737932 18.602792 -34.000497 -1.682151 -2.973119 -4.041948 -17.918691 0.000000 0.000001 0.000001 1.526071 -4.472755 58.277209 5.708373 -4.537252 103.059030 0.935529 -2.801727 36.923511 0.000001 -0.000001 -0.000001 3.882120 -6.911105 71.340213 5.473371 -4.585229 100.104543 0.751926 -2.539352 32.984708 -0.000001 -0.000001 -0.000006 6.776911 -7.488812 77.744806 5.140533 -4.632067 95.963693 0.868073 -2.709728 35.520375 -0.000004 0.000003 -0.000005 3.713619 -6.831081 80.607304 5.498097 -4.580775 100.413698 1.336217 -3.266862 44.481979 -0.000000 -0.000000 0.000002 27.928886 -5.754548 11.795120 101.231163 -1.604246 1.997763 -48.341118 3.612068 -7.776984 -5.963697 0.000000 -0.000002 -0.000001 -0.000000 0.000001 -25.302019 -7.041893 -8.753059 32.137683 6.808969 -1.546447 28.987214 3.290237 -0.695943 -13.851841 0.000000 -0.000001 -0.000000 0.000000 -0.000000 
